<svg id="Logo" xmlns="http://www.w3.org/2000/svg" xmlns:xlink="http://www.w3.org/1999/xlink" width="115.419" height="100.236" viewBox="0 0 115.419 100.236">
  <defs>
    <clipPath id="clip-path">
      <rect id="Rectangle_179" data-name="Rectangle 179" width="115.419" height="100.236" transform="translate(0 0)" fill="none"/>
    </clipPath>
  </defs>
  <g id="Group_365" data-name="Group 365" clip-path="url(#clip-path)">
    <path id="Path_7523" data-name="Path 7523" d="M50.468,38.189A34.506,34.506,0,0,1,2.33,22.846C.7,19.41.7,19.41,3.645,17.156a36.337,36.337,0,0,1,9.388-5.2,38.72,38.72,0,0,0,7.375,12.83c-.111-.009-.225-.025-.337-.034A62.57,62.57,0,0,1,8.455,22.253c-1.439-.432-2.871-.9-4.276-1.42a8.375,8.375,0,0,1-1.97-.827,8.7,8.7,0,0,0,2.139,1.306c1.343.692,2.723,1.312,4.121,1.9a63.3,63.3,0,0,0,10.907,3.572,27.288,27.288,0,0,0,3.476.574A39.031,39.031,0,0,0,49.832,38.195c.213,0,.423,0,.636-.006" transform="translate(2.579 24.944)" fill="#d9a74e"/>
    <path id="Path_7524" data-name="Path 7524" d="M19.018,18.457l-.006.015,0-.022.009.006" transform="translate(39.674 38.51)" fill="#d9a74e"/>
    <path id="Path_7525" data-name="Path 7525" d="M19.315,18.487V18.5l-.006-.009Z" transform="translate(40.301 38.585)" fill="#d9a74e"/>
    <path id="Path_7526" data-name="Path 7526" d="M41.09,47.9c-.247.006-.491.009-.738.009A34.567,34.567,0,0,1,7.684,24.745c-.241-.685-.457-1.377-.654-2.081s-.364-1.4-.516-2.1A34.973,34.973,0,0,1,5.986,9.569c.408-3.782.408-3.782,4.1-4.152a36.015,36.015,0,0,1,3.76-.194A34.985,34.985,0,0,1,28.167,8.235c-.071.262-.133.516-.185.775-.059.228-.111.46-.161.688-.077.349-.145.695-.207,1.04s-.123.685-.179,1.031l0,.04c-.025.123-.043.25-.062.374-.059.4-.111.806-.154,1.21-.065.528-.117,1.062-.151,1.593-.022.355-.046.716-.062,1.071s-.028.722-.034,1.084c0,.275,0,.55,0,.818,0,.222,0,.438.009.658q.019,1.348.145,2.677c.071.8.164,1.587.287,2.377.062.429.136.858.213,1.281-.238-.145-.472-.284-.71-.42-1.136-.648-2.359-1.108-3.488-1.763-.207-.12-.411-.241-.611-.364l-.006-.006c-.938-.58-1.828-1.238-2.711-1.9-.355-.275-.707-.556-1.053-.834a65.686,65.686,0,0,1-7.53-7.384c-1-1.124-1.976-2.269-2.9-3.448A8.341,8.341,0,0,1,7.372,7.09,8.882,8.882,0,0,0,8.508,9.319c.778,1.3,1.63,2.547,2.513,3.779a69.607,69.607,0,0,0,5.14,6.409c.71.781,1.442,1.534,2.195,2.269.025.028.056.052.083.08a26.456,26.456,0,0,0,2.893,2.485c.333.235.673.466,1.031.679,1.445.871,3.028,1.5,4.473,2.368.528.318,1.059.648,1.587,1.006a38.86,38.86,0,0,0,6.119,12.488q.519.708,1.074,1.4c.191.25.389.506.6.763A29.113,29.113,0,0,0,41.09,47.9" transform="translate(12.055 10.899)" fill="#d9a74e"/>
    <path id="Path_7527" data-name="Path 7527" d="M12.821,7.869c-.059.531-.111,1.059-.148,1.593.034-.528.086-1.062.148-1.593" transform="translate(26.45 16.424)" fill="#d9a74e"/>
    <path id="Path_7528" data-name="Path 7528" d="M12.937,7.356c-.083.525-.154,1.056-.216,1.584.043-.4.1-.8.154-1.207.019-.127.037-.25.062-.377" transform="translate(26.551 15.353)" fill="#d9a74e"/>
    <path id="Path_7529" data-name="Path 7529" d="M19.3,25.234c.312.454.651.911,1.006,1.377q-.556-.685-1.074-1.4a38.891,38.891,0,0,1-6.119-12.488.231.231,0,0,1,.074.043A40.246,40.246,0,0,0,18.6,24.243c.222.321.448.654.695.991" transform="translate(27.367 26.566)" fill="#d9a74e"/>
    <path id="Path_7530" data-name="Path 7530" d="M16.082,18l-.037-.009c-.213-.256-.411-.509-.6-.763.207.262.423.516.639.772" transform="translate(32.232 35.951)" fill="#d9a74e"/>
    <path id="Path_7531" data-name="Path 7531" d="M19.018,18.457l-.006.015,0-.022.009.006" transform="translate(39.674 38.51)" fill="#d9a74e"/>
    <path id="Path_7532" data-name="Path 7532" d="M19.315,18.487V18.5l-.006-.009Z" transform="translate(40.301 38.585)" fill="#d9a74e"/>
    <path id="Path_7533" data-name="Path 7533" d="M21.44,38.189a34.38,34.38,0,0,0,16.908,4.439,34.465,34.465,0,0,0,31.23-19.782c1.63-3.436,1.63-3.436-1.318-5.69a36.287,36.287,0,0,0-9.388-5.2A38.658,38.658,0,0,1,51.5,24.781c.108-.009.225-.025.333-.034a62.6,62.6,0,0,0,11.62-2.494c1.436-.432,2.871-.9,4.273-1.42a8.321,8.321,0,0,0,1.97-.827,8.7,8.7,0,0,1-2.139,1.306c-1.34.692-2.723,1.312-4.121,1.9a63.121,63.121,0,0,1-10.907,3.572,27.332,27.332,0,0,1-3.473.574A39.042,39.042,0,0,1,22.076,38.195c-.216,0-.426,0-.636-.006" transform="translate(44.748 24.944)" fill="#d9a74e"/>
    <path id="Path_7534" data-name="Path 7534" d="M19.61,18.457l.006.015,0-.022-.009.006" transform="translate(40.929 38.51)" fill="#d9a74e"/>
    <path id="Path_7535" data-name="Path 7535" d="M19.311,18.487V18.5l.006-.009Z" transform="translate(40.304 38.585)" fill="#d9a74e"/>
    <path id="Path_7536" data-name="Path 7536" d="M21.407,47.9c.247.006.491.009.738.009a34.567,34.567,0,0,0,32.668-23.16c.241-.685.457-1.377.654-2.081s.364-1.4.516-2.1a34.972,34.972,0,0,0,.528-10.993c-.408-3.782-.408-3.782-4.1-4.152a36.015,36.015,0,0,0-3.76-.194A34.985,34.985,0,0,0,34.33,8.235c.071.262.133.516.185.775.059.228.111.46.161.688.077.349.145.695.207,1.04s.123.685.179,1.031l0,.04c.025.123.043.25.062.374.059.4.111.806.154,1.21.065.528.117,1.062.151,1.593.022.355.046.716.062,1.071s.028.722.034,1.084c0,.275,0,.55,0,.818,0,.222,0,.438-.009.658q-.019,1.348-.145,2.677c-.071.8-.164,1.587-.287,2.377-.062.429-.136.858-.213,1.281.238-.145.472-.284.71-.42,1.136-.648,2.359-1.108,3.488-1.763.207-.12.411-.241.611-.364l.006-.006c.938-.58,1.828-1.238,2.711-1.9.355-.275.707-.556,1.053-.834a65.686,65.686,0,0,0,7.53-7.384c1-1.124,1.973-2.269,2.9-3.448A8.341,8.341,0,0,0,55.125,7.09a8.883,8.883,0,0,1-1.136,2.229c-.778,1.3-1.63,2.547-2.513,3.779a69.608,69.608,0,0,1-5.14,6.409c-.71.781-1.442,1.534-2.195,2.269-.025.028-.056.052-.083.08a26.456,26.456,0,0,1-2.893,2.485c-.333.235-.673.466-1.031.679-1.445.871-3.028,1.5-4.473,2.368-.528.318-1.059.648-1.587,1.006a38.86,38.86,0,0,1-6.119,12.488q-.519.708-1.074,1.4c-.191.25-.389.506-.6.763A29.113,29.113,0,0,1,21.407,47.9" transform="translate(44.68 10.899)" fill="#d9a74e"/>
    <path id="Path_7537" data-name="Path 7537" d="M25.9,7.869c.059.531.111,1.059.148,1.593-.034-.528-.086-1.062-.148-1.593" transform="translate(54.059 16.424)" fill="#d9a74e"/>
    <path id="Path_7538" data-name="Path 7538" d="M25.831,7.356c.083.525.154,1.056.216,1.584-.043-.4-.1-.8-.154-1.207-.019-.127-.037-.25-.062-.377" transform="translate(53.913 15.353)" fill="#d9a74e"/>
    <path id="Path_7539" data-name="Path 7539" d="M24.186,25.234c-.312.454-.651.911-1.006,1.377q.556-.685,1.074-1.4a38.891,38.891,0,0,0,6.119-12.488.231.231,0,0,0-.074.043,40.246,40.246,0,0,1-5.418,11.472c-.222.321-.448.654-.695.991" transform="translate(48.38 26.566)" fill="#d9a74e"/>
    <path id="Path_7540" data-name="Path 7540" d="M22.972,18l.037-.009c.213-.256.411-.509.6-.763-.207.262-.423.516-.639.772" transform="translate(47.946 35.951)" fill="#d9a74e"/>
    <path id="Path_7541" data-name="Path 7541" d="M19.61,18.457l.006.015,0-.022-.009.006" transform="translate(40.929 38.51)" fill="#d9a74e"/>
    <path id="Path_7542" data-name="Path 7542" d="M19.311,18.487V18.5l.006-.009Z" transform="translate(40.304 38.585)" fill="#d9a74e"/>
    <path id="Path_7543" data-name="Path 7543" d="M15.936,39.626A32.231,32.231,0,0,0,17.8,44.117,34.488,34.488,0,0,0,22.12,50.73c-.617-.79-1.2-1.605-1.769-2.433a36.482,36.482,0,0,1-2.393-4.053A33.724,33.724,0,0,1,16.029,39.7a.928.928,0,0,1-.034-.1c-.343-.994-.63-1.988-.877-2.995q-.324-1.338-.537-2.686a33.934,33.934,0,0,1-.423-4.689,33.51,33.51,0,0,0,.4,4.677c.133.9.3,1.787.519,2.667.232,1,.509,1.988.837,2.973m.315-22.7q-.384,1.047-.695,2.118c-.182.621-.346,1.247-.485,1.877.145-.63.312-1.25.5-1.871.2-.713.432-1.417.695-2.115l-.015-.009M29.047.261A3.453,3.453,0,0,1,29.5.036a2.828,2.828,0,0,0-.457.225M30.625.036a3.871,3.871,0,0,1,.457.225,2.6,2.6,0,0,0-.457-.225m13.9,18.711A34.4,34.4,0,0,0,33.024,1.715c-.479-.38-.877-.7-1.226-.963.324.25.7.559,1.152.923A35.227,35.227,0,0,1,44.523,18.753c.161.519.306,1.043.435,1.568-.127-.528-.272-1.053-.429-1.574M30.409,57l.006.009V57Zm-.926-.111,0,.019,0-.012-.006-.006m16.09-33.52a2.951,2.951,0,0,0-.052-.324c.019.108.034.216.049.324.056.361.1.722.154,1.084-.043-.361-.093-.722-.151-1.084m.265,2.17c.062.722.1,1.454.127,2.18-.022-.725-.059-1.457-.127-2.18" transform="translate(29.55 0.075)" fill="#d9a74e"/>
    <path id="Path_7544" data-name="Path 7544" d="M45.968,27.794c-.019-.729-.062-1.46-.127-2.183-.028-.364-.065-.725-.114-1.087s-.1-.722-.154-1.084c-.015-.1-.028-.216-.049-.324-.043-.253-.086-.509-.133-.766-.077-.426-.17-.852-.265-1.275-.009-.052-.025-.1-.037-.154-.04-.173-.083-.352-.127-.525-.13-.525-.275-1.05-.432-1.568A35.247,35.247,0,0,0,32.956,1.753c-.448-.367-.827-.676-1.155-.926a8.42,8.42,0,0,0-.713-.491,4.42,4.42,0,0,0-.457-.225h-.006L30.48.062c-.046-.012-.1-.025-.145-.034A1.234,1.234,0,0,0,30.076,0,1.406,1.406,0,0,0,29.8.028c-.046.009-.1.022-.142.034s-.1.031-.145.049h-.006a3.882,3.882,0,0,0-.457.225c-.21.13-.448.29-.713.491-.352.259-.75.583-1.226.963A34.426,34.426,0,0,0,16.23,16.927l.015.009q-.389,1.047-.7,2.115c-.188.621-.352,1.241-.5,1.871a3.027,3.027,0,0,0-.071.3c-.086.377-.164.75-.232,1.13-.049.256-.093.512-.136.766-.062.386-.12.775-.173,1.167q-.148,1.162-.219,2.334c-.025.4-.04.784-.049,1.176-.015.5-.019,1-.009,1.516A34.419,34.419,0,0,0,14.584,34q.218,1.348.54,2.686.366,1.51.874,2.995l.034.1a34.655,34.655,0,0,0,1.926,4.538,36.069,36.069,0,0,0,2.4,4.053c.562.827,1.148,1.642,1.766,2.433l.009.009a34.876,34.876,0,0,0,4.1,4.177c.111.1.256.207.42.324h0a17.978,17.978,0,0,0,1.874,1.155c.043.025.08.049.12.071h0c.293.154.574.3.827.42l.012.006.037.019c.2.093.386.173.54.225a1.36,1.36,0,0,0,.438.117h.012c.031-.1.052-.219.083-.343.009-.059.025-.12.037-.182.025-.145.052-.3.077-.469a37.074,37.074,0,0,0,.358-3.745v0c.034-.583.062-1.195.08-1.846.025-.732.04-1.507.04-2.309,0-.361,0-.729,0-1.1-.009-1.38-.043-2.84-.12-4.337-.09-1.973-.244-4.013-.475-6.042-.025-.222-.049-.451-.077-.673v-.009c-.13-1.065-.284-2.13-.457-3.164-.216-1.294-.472-2.556-.766-3.763-.015-.068-.031-.142-.049-.207-.145-.583-.321-1.152-.509-1.72-.343-1.034-.716-2.062-.982-3.121a22.319,22.319,0,0,1-.534-5.01A63.679,63.679,0,0,1,28.18,7.848c.244-1.494.528-2.979.889-4.449a9.055,9.055,0,0,1,.775-2.383A8.678,8.678,0,0,0,29.5,3.124c-.179,1.491-.3,2.988-.392,4.486a62.885,62.885,0,0,0,.265,11.882,32.126,32.126,0,0,0,.7,3.822,1.184,1.184,0,0,0,.034.142c.34,1.266.88,2.448,1.223,3.714.025.083.043.164.062.247a42.967,42.967,0,0,1,1.065,5.338c.13.892.225,1.787.3,2.683.019.225.037.454.046.679.031.327.049.658.065.985.068,1.142.09,2.294.086,3.439-.006,1.127-.043,2.254-.111,3.374v.009c-.1,1.6-.265,3.189-.491,4.782-.059.426-.12.855-.194,1.284q-.278,1.764-.664,3.513-.329,1.528-.725,3.028c-.04.145-.077.284-.117.429-.009.043-.022.086-.034.13-.012.059-.028.111-.043.164q.167-.083.333-.176c.136-.068.265-.142.4-.219a12.965,12.965,0,0,0,1.121-.688c.145-.09.281-.185.42-.284.111-.077.216-.154.321-.235.272-.191.531-.4.787-.608.108-.086.216-.176.321-.269.336-.284.661-.577.979-.88.142-.136.284-.272.417-.411a29.582,29.582,0,0,0,2.337-2.67l.009-.009c.614-.79,1.2-1.605,1.766-2.433.55-.809,1.059-1.627,1.537-2.46.46-.8.889-1.621,1.278-2.445a34.994,34.994,0,0,0,1.642-4.081c.352-1.059.645-2.13.892-3.2a34.263,34.263,0,0,0,.846-6.875c.009-.506.006-1.013-.009-1.516M30.418,57.072v.009l-.006-.009Z" transform="translate(29.546 0)" fill="#d9a74e"/>
    <path id="Path_7545" data-name="Path 7545" d="M5.767,25.816h5.909l.556.7-.191.188a3.871,3.871,0,0,0-1.769-.621H6.43v3.593h2.1c.688,0,.871-.824.871-.824h.269v1.917H9.4s-.182-.824-.871-.824H6.43v3.593h3.84a3.883,3.883,0,0,0,1.769-.617l.191.188-.556.695H4.859v-.265s.9,0,.908-.605V26.687c0-.67-.908-.605-.908-.605v-.265Z" transform="translate(10.141 53.882)" fill="#d9a74e" stroke="#d9a74e" stroke-width="1"/>
    <path id="Path_7546" data-name="Path 7546" d="M12.162,25.816c.142,0,.287,0,.435.015a6.4,6.4,0,0,1,.738.086,5.082,5.082,0,0,1,.58.139,7.126,7.126,0,0,0,1.266.185l.577,1.04-.222.145a4.79,4.79,0,0,0-1.229-.889,4.208,4.208,0,0,0-1.8-.448,5.563,5.563,0,0,0-1.544.108,1.568,1.568,0,0,0-1.105.71,1.1,1.1,0,0,0-.1.494,1.7,1.7,0,0,0,1.05,1.4,12.933,12.933,0,0,0,2.1.8,6.314,6.314,0,0,1,2.007.908,2.1,2.1,0,0,1,.772.948,2.2,2.2,0,0,1,.083.611,1.429,1.429,0,0,1-.253.8,2.126,2.126,0,0,1-.985.707,5.609,5.609,0,0,1-2.065.216,7.217,7.217,0,0,1-.738-.09,5.592,5.592,0,0,1-.583-.136,6.807,6.807,0,0,0-1.263-.185l-.58-1.04.225-.148a4.707,4.707,0,0,0,1.229.889,4.208,4.208,0,0,0,1.8.451,5.694,5.694,0,0,0,1.544-.108,1.587,1.587,0,0,0,1.105-.71,1.148,1.148,0,0,0,.1-.494,1.7,1.7,0,0,0-1.05-1.4c-1.306-.685-2.927-.8-4.1-1.713a2.052,2.052,0,0,1-.769-.948,1.956,1.956,0,0,1-.086-.608,1.39,1.39,0,0,1,.253-.8,2.053,2.053,0,0,1,.985-.707,5.151,5.151,0,0,1,1.63-.232" transform="translate(19.392 53.882)" fill="#d9a74e" stroke="#d9a74e" stroke-width="1"/>
    <path id="Path_7547" data-name="Path 7547" d="M14.759,25.815h2.661c.21,0,.692.009.9.031a2.536,2.536,0,0,1,2.034,1.087,2.448,2.448,0,0,1,.306,1.21,2.231,2.231,0,0,1-.744,1.729,4.36,4.36,0,0,1-2.5.6H14.864v2.464c0,.587.908.605.908.605v.265H13.293v-.265s.908-.028.908-.608V26.695c0-.587-.908-.608-.908-.608v-.265h1.466Zm.1.265V30.2H17.51a3.052,3.052,0,0,0,1.784-.475,2.116,2.116,0,0,0,.34-2.828,2.614,2.614,0,0,0-2.124-.821H14.864Z" transform="translate(27.744 53.88)" fill="#d9a74e" stroke="#d9a74e" stroke-width="1"/>
    <path id="Path_7548" data-name="Path 7548" d="M18.313,25.814h3.22c.21,0,.692.006.9.028a2.528,2.528,0,0,1,2.034,1.087,2.439,2.439,0,0,1,.306,1.21,2.22,2.22,0,0,1-.744,1.726,4.036,4.036,0,0,1-2.266.522c.624,0,1.087.71,1.087.71s.735,1.034,1.306,1.84a1.6,1.6,0,0,0,1.164.605v.269H22.866v-.269s.908.006.479-.605l0,.006-1.2-1.7a2.193,2.193,0,0,0-1.716-.778c-.488,0-.969,0-1.454,0V32.93c0,.6.908.608.908.608V33.8H17.4v-.265s.9-.034.908-.608V26.688c0-.583-.908-.611-.908-.611v-.262Zm.664.262V30.2h2.649a3.027,3.027,0,0,0,1.781-.479,2.111,2.111,0,0,0,.34-2.825,2.611,2.611,0,0,0-2.121-.821H18.976Z" transform="translate(36.327 53.878)" fill="#d9a74e" stroke="#d9a74e" stroke-width="1"/>
    <path id="Path_7549" data-name="Path 7549" d="M22.953,25.816h5.909l.556.7-.191.188a3.871,3.871,0,0,0-1.769-.621h-3.84v3.593h2.1c.688,0,.871-.824.871-.824h.269v1.917h-.269s-.182-.824-.871-.824h-2.1v3.593h3.84a3.883,3.883,0,0,0,1.769-.617l.191.188-.556.695H22.045v-.265s.9,0,.908-.605V26.687c0-.67-.908-.605-.908-.605v-.265Z" transform="translate(46.011 53.882)" fill="#d9a74e" stroke="#d9a74e" stroke-width="1"/>
    <path id="Path_7550" data-name="Path 7550" d="M29.347,25.816c.142,0,.287,0,.435.015a6.4,6.4,0,0,1,.738.086,5.082,5.082,0,0,1,.58.139,7.126,7.126,0,0,0,1.266.185l.577,1.04-.222.145a4.79,4.79,0,0,0-1.229-.889,4.208,4.208,0,0,0-1.8-.448,5.564,5.564,0,0,0-1.544.108,1.567,1.567,0,0,0-1.105.71,1.1,1.1,0,0,0-.1.494,1.7,1.7,0,0,0,1.05,1.4,12.933,12.933,0,0,0,2.1.8,6.314,6.314,0,0,1,2.007.908,2.1,2.1,0,0,1,.772.948,2.2,2.2,0,0,1,.083.611,1.429,1.429,0,0,1-.253.8,2.126,2.126,0,0,1-.985.707,5.609,5.609,0,0,1-2.065.216,7.217,7.217,0,0,1-.738-.09,5.591,5.591,0,0,1-.583-.136,6.807,6.807,0,0,0-1.263-.185l-.58-1.04.225-.148a4.707,4.707,0,0,0,1.229.889,4.208,4.208,0,0,0,1.8.451,5.694,5.694,0,0,0,1.544-.108,1.587,1.587,0,0,0,1.105-.71,1.148,1.148,0,0,0,.1-.494,1.7,1.7,0,0,0-1.05-1.4c-1.306-.685-2.927-.8-4.1-1.713a2.052,2.052,0,0,1-.769-.948,1.956,1.956,0,0,1-.086-.608,1.39,1.39,0,0,1,.253-.8,2.053,2.053,0,0,1,.985-.707,5.151,5.151,0,0,1,1.63-.232" transform="translate(55.259 53.882)" fill="#d9a74e" stroke="#d9a74e" stroke-width="1"/>
    <path id="Path_7551" data-name="Path 7551" d="M33.476,25.816c.142,0,.287,0,.435.015a6.4,6.4,0,0,1,.738.086,5.083,5.083,0,0,1,.58.139,7.126,7.126,0,0,0,1.266.185l.577,1.04-.222.145a4.79,4.79,0,0,0-1.229-.889,4.208,4.208,0,0,0-1.8-.448,5.563,5.563,0,0,0-1.544.108,1.567,1.567,0,0,0-1.105.71,1.1,1.1,0,0,0-.1.494,1.7,1.7,0,0,0,1.05,1.4,12.933,12.933,0,0,0,2.1.8,6.314,6.314,0,0,1,2.007.908,2.1,2.1,0,0,1,.772.948,2.2,2.2,0,0,1,.083.611,1.429,1.429,0,0,1-.253.8,2.126,2.126,0,0,1-.985.707,5.609,5.609,0,0,1-2.065.216,7.216,7.216,0,0,1-.738-.09,5.592,5.592,0,0,1-.583-.136,6.807,6.807,0,0,0-1.263-.185l-.58-1.04.225-.148a4.707,4.707,0,0,0,1.229.889,4.208,4.208,0,0,0,1.8.451,5.694,5.694,0,0,0,1.544-.108,1.587,1.587,0,0,0,1.105-.71,1.148,1.148,0,0,0,.1-.494,1.7,1.7,0,0,0-1.05-1.4c-1.306-.685-2.927-.8-4.1-1.713a2.052,2.052,0,0,1-.769-.948,1.955,1.955,0,0,1-.086-.608,1.39,1.39,0,0,1,.253-.8,2.053,2.053,0,0,1,.985-.707,5.151,5.151,0,0,1,1.63-.232" transform="translate(63.877 53.882)" fill="#d9a74e" stroke="#d9a74e" stroke-width="1"/>
    <path id="Path_7552" data-name="Path 7552" d="M37.861,25.817c1.784,0,3.229,1.414,3.229,3.995S39.646,33.8,37.861,33.8s-3.232-1.414-3.232-3.992,1.445-3.995,3.232-3.995m-.318.3a2.079,2.079,0,0,0-.389.04c-1.386.269-2.26,1.781-1.806,4.14s1.831,3.442,3.217,3.174,2.263-1.781,1.809-4.14c-.414-2.139-1.584-3.226-2.831-3.214" transform="translate(72.276 53.884)" fill="#d9a74e" stroke="#d9a74e" stroke-width="1"/>
    <path id="Path_7553" data-name="Path 7553" d="M7.36,32.715a3.505,3.505,0,0,1-1.55.556H2.368v-2.8h1.7c.358,0,.475.494.482.512l.068.315H5.6V28.582H4.615l-.068.312c0,.006-.123.512-.482.512h-1.7v-2.8H5.81a3.465,3.465,0,0,1,1.55.556l.272.176.673-.667-.9-1.127H0l0,1.09.423-.028a.7.7,0,0,1,.445.1c.012.009.037.031.037.1v6.242c0,.154-.4.21-.512.21l-.4,0V34.33H7.409l.9-1.121-.673-.673Z" transform="translate(0 53.321)" fill="#d9a74e"/>
    <path id="Path_7554" data-name="Path 7554" d="M11.2,34.272a2.146,2.146,0,0,1-.793-.145,1.929,1.929,0,0,1-.627-.4,1.861,1.861,0,0,1-.414-.611,2.068,2.068,0,0,1,0-1.537,1.788,1.788,0,0,1,.42-.611,1.873,1.873,0,0,1,.627-.4,2.145,2.145,0,0,1,.793-.142,2.206,2.206,0,0,1,.772.136,1.565,1.565,0,0,1,.611.417l-.256.253a1.316,1.316,0,0,0-.512-.343,1.8,1.8,0,0,0-1.238.009,1.5,1.5,0,0,0-.509.33,1.581,1.581,0,0,0-.34.5,1.644,1.644,0,0,0,0,1.25,1.547,1.547,0,0,0,.34.5,1.452,1.452,0,0,0,.509.33,1.638,1.638,0,0,0,.633.117,1.621,1.621,0,0,0,.605-.108,1.4,1.4,0,0,0,.512-.346l.256.253a1.565,1.565,0,0,1-.611.417,2.162,2.162,0,0,1-.778.142" transform="translate(19.231 63.489)" fill="#d9a74e" stroke="#d9a74e" stroke-width="0.5"/>
    <path id="Path_7555" data-name="Path 7555" d="M12.652,34.272a2.146,2.146,0,0,1-.793-.145,1.9,1.9,0,0,1-.633-.4,1.972,1.972,0,0,1-.417-2.142,1.858,1.858,0,0,1,1.047-1.019,2.287,2.287,0,0,1,1.587,0,1.84,1.84,0,0,1,1.047,1.016,2.021,2.021,0,0,1,0,1.534,1.866,1.866,0,0,1-1.047,1.016,2.129,2.129,0,0,1-.79.145m0-.358a1.681,1.681,0,0,0,.63-.117,1.471,1.471,0,0,0,.5-.33,1.564,1.564,0,0,0,.333-.5,1.683,1.683,0,0,0,0-1.25,1.564,1.564,0,0,0-.333-.5,1.47,1.47,0,0,0-.5-.33,1.757,1.757,0,0,0-1.263,0,1.454,1.454,0,0,0-.506.33,1.625,1.625,0,0,0-.337.5,1.594,1.594,0,0,0,.337,1.747,1.454,1.454,0,0,0,.506.33,1.685,1.685,0,0,0,.633.117" transform="translate(22.245 63.489)" fill="#d9a74e" stroke="#d9a74e" stroke-width="0.5"/>
    <path id="Path_7556" data-name="Path 7556" d="M12.846,34.217h-.4V30.429h2.6v.349h-2.2ZM12.8,32.263h2v.346h-2Z" transform="translate(25.981 63.51)" fill="#d9a74e" stroke="#d9a74e" stroke-width="0.5"/>
    <path id="Path_7557" data-name="Path 7557" d="M14.164,34.217h-.4V30.429h2.593v.349h-2.2Zm-.04-1.954h2v.346h-2Z" transform="translate(28.738 63.51)" fill="#d9a74e" stroke="#d9a74e" stroke-width="0.5"/>
    <path id="Path_7558" data-name="Path 7558" d="M15.486,33.871h2.278v.346H15.088V30.429h2.6v.349h-2.2Zm-.043-1.747h2v.34h-2Z" transform="translate(31.491 63.51)" fill="#d9a74e" stroke="#d9a74e" stroke-width="0.5"/>
    <path id="Path_7559" data-name="Path 7559" d="M16.869,33.871h2.278v.346H16.471V30.429h2.6v.349h-2.2Zm-.043-1.747h2v.34h-2Z" transform="translate(34.377 63.51)" fill="#d9a74e" stroke="#d9a74e" stroke-width="0.5"/>
    <path id="Path_7560" data-name="Path 7560" d="M20.4,34.272a2.129,2.129,0,0,1-.79-.145,1.9,1.9,0,0,1-.627-.4,1.815,1.815,0,0,1-.414-.611,2.029,2.029,0,0,1,0-1.537,1.824,1.824,0,0,1,.417-.611,1.918,1.918,0,0,1,.63-.4,2.128,2.128,0,0,1,.79-.142,2.211,2.211,0,0,1,.775.136,1.588,1.588,0,0,1,.611.417l-.256.253a1.338,1.338,0,0,0-.512-.343,1.708,1.708,0,0,0-.605-.1,1.685,1.685,0,0,0-.633.114,1.5,1.5,0,0,0-.509.33,1.581,1.581,0,0,0-.34.5,1.644,1.644,0,0,0,0,1.25,1.547,1.547,0,0,0,.34.5,1.452,1.452,0,0,0,.509.33,1.627,1.627,0,0,0,.633.117,1.644,1.644,0,0,0,.605-.108,1.421,1.421,0,0,0,.512-.346l.256.253a1.588,1.588,0,0,1-.611.417,2.167,2.167,0,0,1-.781.142" transform="translate(38.433 63.489)" fill="#d9a74e" stroke="#d9a74e" stroke-width="0.5"/>
    <path id="Path_7561" data-name="Path 7561" d="M19.766,34.218,21.5,30.43h.4l1.729,3.788H23.2l-1.59-3.556h.161l-1.59,3.556Zm.682-1.013.117-.324h2.2l.117.324Z" transform="translate(41.255 63.512)" fill="#d9a74e" stroke="#d9a74e" stroke-width="0.5"/>
    <path id="Path_7562" data-name="Path 7562" d="M21.43,34.217V30.429h1.417a2.04,2.04,0,0,1,.827.154,1.189,1.189,0,0,1,.534.445,1.243,1.243,0,0,1,.185.7,1.173,1.173,0,0,1-.719,1.136,1.988,1.988,0,0,1-.827.157h-1.2l.179-.191v1.386Zm.4-1.352-.179-.194h1.185a1.324,1.324,0,0,0,.864-.247.849.849,0,0,0,.293-.695.868.868,0,0,0-.293-.7,1.306,1.306,0,0,0-.864-.25H21.649l.179-.188Z" transform="translate(44.728 63.51)" fill="#d9a74e" stroke="#d9a74e" stroke-width="0.5"/>
    <path id="Path_7563" data-name="Path 7563" d="M24.188,34.272a2.37,2.37,0,0,1-.809-.139,1.55,1.55,0,0,1-.6-.355l.157-.309a1.574,1.574,0,0,0,.54.327,1.9,1.9,0,0,0,.71.133,1.538,1.538,0,0,0,.58-.09.69.69,0,0,0,.33-.241.563.563,0,0,0,.1-.333.507.507,0,0,0-.127-.358.874.874,0,0,0-.33-.213,3.819,3.819,0,0,0-.457-.139c-.167-.04-.33-.083-.5-.127a2.076,2.076,0,0,1-.457-.182.955.955,0,0,1-.336-.3.863.863,0,0,1-.127-.491.946.946,0,0,1,.148-.516,1.038,1.038,0,0,1,.46-.38,1.861,1.861,0,0,1,.787-.142,2.193,2.193,0,0,1,.633.09,1.852,1.852,0,0,1,.54.244l-.133.321a1.718,1.718,0,0,0-.519-.238,2,2,0,0,0-.528-.077,1.485,1.485,0,0,0-.562.093.7.7,0,0,0-.327.247.619.619,0,0,0-.1.349.512.512,0,0,0,.127.358.935.935,0,0,0,.336.21,4.28,4.28,0,0,0,.457.136c.167.04.33.08.494.13a2.24,2.24,0,0,1,.457.182.9.9,0,0,1,.333.293.845.845,0,0,1,.127.482.921.921,0,0,1-.151.512,1.053,1.053,0,0,1-.46.377,1.928,1.928,0,0,1-.8.145" transform="translate(47.545 63.489)" fill="#d9a74e" stroke="#d9a74e" stroke-width="0.5"/>
    <path id="Path_7564" data-name="Path 7564" d="M25.735,34.251a1.542,1.542,0,0,1-1.142-.417,1.674,1.674,0,0,1-.417-1.235v-2.17h.4v2.155a1.39,1.39,0,0,0,.3.991,1.313,1.313,0,0,0,1.713,0,1.39,1.39,0,0,0,.306-.991V30.429h.389V32.6a1.685,1.685,0,0,1-.414,1.235,1.539,1.539,0,0,1-1.139.417" transform="translate(50.459 63.51)" fill="#d9a74e" stroke="#d9a74e" stroke-width="0.5"/>
    <path id="Path_7565" data-name="Path 7565" d="M25.785,34.217V30.429h.4v3.442H28.3v.346Z" transform="translate(53.818 63.511)" fill="#d9a74e" stroke="#d9a74e" stroke-width="0.5"/>
    <path id="Path_7566" data-name="Path 7566" d="M27.426,33.871h2.281v.346h-2.68V30.429h2.6v.349h-2.2Zm-.04-1.747h2v.34h-2Z" transform="translate(56.411 63.51)" fill="#d9a74e" stroke="#d9a74e" stroke-width="0.5"/>
    <path id="Path_7567" data-name="Path 7567" d="M29.7,34.272a2.37,2.37,0,0,1-.809-.139,1.55,1.55,0,0,1-.6-.355l.157-.309a1.574,1.574,0,0,0,.54.327,1.9,1.9,0,0,0,.71.133,1.538,1.538,0,0,0,.58-.09.69.69,0,0,0,.33-.241.563.563,0,0,0,.1-.333.507.507,0,0,0-.127-.358.874.874,0,0,0-.33-.213,3.819,3.819,0,0,0-.457-.139c-.167-.04-.33-.083-.5-.127a2.075,2.075,0,0,1-.457-.182.955.955,0,0,1-.336-.3.863.863,0,0,1-.127-.491.946.946,0,0,1,.148-.516,1.038,1.038,0,0,1,.46-.38,1.861,1.861,0,0,1,.787-.142,2.193,2.193,0,0,1,.633.09,1.852,1.852,0,0,1,.54.244l-.133.321a1.718,1.718,0,0,0-.519-.238,2,2,0,0,0-.528-.077,1.485,1.485,0,0,0-.562.093.7.7,0,0,0-.327.247.619.619,0,0,0-.1.349.512.512,0,0,0,.127.358.935.935,0,0,0,.336.21,4.28,4.28,0,0,0,.457.136c.167.04.33.08.494.13a2.24,2.24,0,0,1,.457.182.9.9,0,0,1,.333.293.845.845,0,0,1,.127.482.921.921,0,0,1-.151.512,1.053,1.053,0,0,1-.46.377,1.928,1.928,0,0,1-.8.145" transform="translate(59.052 63.489)" fill="#d9a74e" stroke="#d9a74e" stroke-width="0.5"/>
  </g>
</svg>
